Coordinates
version=1
nRows=7
nColumns=42
inDegrees=yes

Units are S.I. units (second, meters, Newtons, ...)
If the header above contains a line with 'inDegrees', this indicates whether rotational values are in degrees (yes) or radians (no).

endheader
time	pelvis_tilt	pelvis_list	pelvis_rotation	pelvis_tx	pelvis_ty	pelvis_tz	hip_flexion_r	hip_adduction_r	hip_rotation_r	knee_angle_r	knee_angle_r_beta	ankle_angle_r	subtalar_angle_r	mtp_angle_r	hip_flexion_l	hip_adduction_l	hip_rotation_l	knee_angle_l	knee_angle_l_beta	ankle_angle_l	subtalar_angle_l	mtp_angle_l	lumbar_extension	lumbar_bending	lumbar_rotation	sh_tx_r	sh_ty_r	sh_tz_r	sh_plane_elev_r	sh_elev_r	sh_axial_rot_r	elbow_flex_r	pro_sup_r	sh_tx_l	sh_ty_l	sh_tz_l	sh_plane_elev_l	sh_elev_l	sh_axial_rot_l	elbow_flex_l	pro_sup_l
      0.00000000	     -4.63687169	     -2.11031617	     -0.30815816	      0.29904365	      0.93030780	     -0.04202714	      3.82759273	     -5.54805991	     -2.38641419	      5.60723109	      0.09786464	     -2.33276358	    -11.66927099	     -4.95429600	      2.24242300	     -5.53254633	     -6.43068107	      4.39568415	      0.07671916	     12.89247359	     -4.33208617	     -4.95429600	      0.57489002	      2.46538038	     -2.79957538	     -0.00517094	     -0.01628186	     -0.00611743	      6.58284174	      6.49152563	     -0.91290224	     28.79727427	     78.24181030	     -0.00908464	      0.00010901	     -0.00453143	      8.80613744	     14.31288884	      2.13154544	     36.97599095	     74.80914850
      0.01694910	     -6.66962310	     -1.97571818	     -0.37024666	      0.30135490	      0.92646210	     -0.04210910	      5.44550261	     -5.83321575	     -3.54773300	      4.57799772	      0.07990113	      1.04560414	     -7.78543279	     -5.84517006	      4.67718074	     -5.44820959	     -7.87486321	      3.61983611	      0.06317806	     13.05468804	     -2.28193782	     -5.84517006	      3.72827618	      2.25293852	     -3.17940665	     -0.00696726	     -0.01483952	     -0.00630348	      0.12298756	      4.84759874	      0.04039072	     29.12878348	     80.33867508	     -0.00810799	      0.00477576	     -0.00493542	      3.05792857	     12.89746920	      1.56865852	     37.63222629	     77.61022791
      0.03389830	     -7.22590669	     -1.34459512	     -0.32915473	      0.30187830	      0.92594998	     -0.04187977	      5.46516767	     -6.72965898	     -4.57391031	      3.32938617	      0.05810875	      1.62843516	     -6.87816034	     -5.80634402	      5.02446901	     -4.82483250	     -9.31572080	      2.95920753	      0.05164791	     12.59985562	     -0.95213991	     -5.80634402	      4.38923620	      1.30973472	     -3.77188417	     -0.00702584	     -0.01434453	     -0.00624779	     -0.16026173	      4.37530116	     -0.93548470	     29.44043055	     79.90076758	     -0.01022071	      0.00491047	     -0.00484307	      2.96130896	     13.97651085	      1.14506194	     37.92022916	     77.43428177
      0.05084750	     -7.15682359	     -0.95968197	     -0.16918402	      0.30188563	      0.92392557	     -0.04173619	      5.01438329	     -7.24804323	     -5.07402486	      2.73879555	      0.04780100	      2.75320131	     -5.90480089	     -6.07132298	      4.38739381	     -4.38634506	     -9.58040759	      2.04630959	      0.03571484	     12.23544715	     -0.27727006	     -6.07132298	      4.32000246	      0.74669459	     -3.96505561	     -0.00759378	     -0.01470623	     -0.00617653	      0.04257090	      4.26718508	     -1.00445719	     29.93452715	     77.56151166	     -0.01282888	      0.00475066	     -0.00470246	      2.84705938	     15.19886343	      1.55460860	     38.96362085	     75.92835865
      0.06779660	     -7.18826038	     -0.87081949	     -0.29418739	      0.29794011	      0.92445330	     -0.03708555	      5.02314153	     -7.16725342	     -4.89462924	      2.44310676	      0.04264026	      3.54495791	     -5.67481805	     -6.11219700	      4.13625665	     -4.44549568	     -9.93969265	      1.48035817	      0.02583712	     11.98960884	     -0.03544317	     -6.11219700	      4.20858371	      0.53716719	     -3.88491761	     -0.00677825	     -0.01510601	     -0.00612019	      0.06091518	      4.09935711	     -0.55783775	     30.47771248	     77.32587334	     -0.01300300	      0.00463978	     -0.00450352	      3.33244037	     16.53098106	      1.99854786	     40.59780889	     75.88469435
      0.08474580	     -7.11323106	     -0.88932827	     -0.14686399	      0.29793922	      0.92543373	     -0.03724319	      4.83338633	     -6.98110914	     -4.84677099	      2.27011683	      0.03962101	      3.99216671	     -5.28571774	     -6.38706729	      4.00299964	     -4.52142954	    -10.04782537	      1.22596411	      0.02139711	     11.63908882	     -0.02548951	     -6.38706729	      4.19924987	      0.49722749	     -4.14660039	     -0.00514060	     -0.01553086	     -0.00608107	      0.15429321	      3.94946427	      0.04291296	     30.77948532	     74.97553632	     -0.01231327	      0.00362776	     -0.00434732	      3.69992707	     18.01319412	      2.31476341	     42.34605757	     74.18457956
      0.10169490	     -6.93475263	     -0.88139587	      0.20100401	      0.30176174	      0.92605029	     -0.04227574	      4.38554067	     -7.03206938	     -5.12258622	      2.13993546	      0.03734892	      4.21666756	     -4.98896795	     -6.61320355	      3.77180539	     -4.43814562	     -9.96504455	      1.07736522	      0.01880357	     11.32671844	     -0.14345350	     -6.61320355	      4.11447723	      0.55097481	     -4.90172003	     -0.00344875	     -0.01559493	     -0.00602102	      1.11965709	      4.01817955	      0.34217799	     30.85801189	     72.56512288	     -0.01344829	      0.00284576	     -0.00427163	      4.56745537	     19.22383350	      2.31298683	     43.76587481	     72.70888863
